<mxfile host="app.diagrams.net" modified="2024-02-21T16:09:08.455Z" agent="Mozilla/5.0 (Windows NT 10.0; Win64; x64) AppleWebKit/537.36 (KHTML, like Gecko) Chrome/121.0.0.0 Safari/537.36 Edg/121.0.0.0" etag="b8jRBZWRADY80mrVMi9F" version="23.1.5" type="device">
  <diagram name="Page-1" id="2c0d36ab-eaac-3732-788b-9136903baeff">
    <mxGraphModel dx="3246.5" dy="603" grid="1" gridSize="10" guides="1" tooltips="1" connect="1" arrows="1" fold="1" page="1" pageScale="1.5" pageWidth="1169" pageHeight="827" background="none" math="0" shadow="0">
      <root>
        <mxCell id="0" />
        <mxCell id="1" parent="0" />
        <mxCell id="123" value="" style="fillColor=#AE4132;strokeColor=none;opacity=30;" parent="1" vertex="1">
          <mxGeometry x="747" y="175.50000000000003" width="210" height="99.99999999999994" as="geometry" />
        </mxCell>
        <mxCell id="122" value="" style="fillColor=#10739E;strokeColor=none;opacity=30;" parent="1" vertex="1">
          <mxGeometry x="-220" y="390" width="2130" height="100" as="geometry" />
        </mxCell>
        <mxCell id="120" value="" style="fillColor=#F2931E;strokeColor=none;opacity=30;" parent="1" vertex="1">
          <mxGeometry x="977" y="510" width="150" height="164.5" as="geometry" />
        </mxCell>
        <mxCell id="118" value="" style="fillColor=#F2931E;strokeColor=none;opacity=30;" parent="1" vertex="1">
          <mxGeometry x="237" y="509" width="150" height="175.5" as="geometry" />
        </mxCell>
        <mxCell id="OYL8JyaW53EyTGdHdamk-140" style="edgeStyle=orthogonalEdgeStyle;rounded=0;orthogonalLoop=1;jettySize=auto;html=1;exitX=0.5;exitY=1;exitDx=0;exitDy=0;" parent="1" source="2" target="OYL8JyaW53EyTGdHdamk-139" edge="1">
          <mxGeometry relative="1" as="geometry" />
        </mxCell>
        <mxCell id="OYL8JyaW53EyTGdHdamk-144" style="edgeStyle=orthogonalEdgeStyle;rounded=0;orthogonalLoop=1;jettySize=auto;html=1;exitX=0.5;exitY=1;exitDx=0;exitDy=0;entryX=0.5;entryY=0;entryDx=0;entryDy=0;" parent="1" source="2" target="OYL8JyaW53EyTGdHdamk-143" edge="1">
          <mxGeometry relative="1" as="geometry" />
        </mxCell>
        <mxCell id="2" value="HOME" style="rounded=1;fillColor=#23445D;gradientColor=none;strokeColor=none;fontColor=#FFFFFF;fontStyle=1;fontFamily=Tahoma;fontSize=14" parent="1" vertex="1">
          <mxGeometry x="757" y="185.5" width="190" height="80" as="geometry" />
        </mxCell>
        <mxCell id="EgWpM7FZ9DTtyiWYHVQE-129" style="edgeStyle=orthogonalEdgeStyle;rounded=0;orthogonalLoop=1;jettySize=auto;html=1;exitX=0.5;exitY=1;exitDx=0;exitDy=0;entryX=0;entryY=0.5;entryDx=0;entryDy=0;" parent="1" source="4" target="EgWpM7FZ9DTtyiWYHVQE-124" edge="1">
          <mxGeometry relative="1" as="geometry" />
        </mxCell>
        <mxCell id="4" value="VIDEO CALL" style="rounded=1;fillColor=#23445D;gradientColor=none;strokeColor=none;fontColor=#FFFFFF;fontStyle=1;fontFamily=Tahoma;fontSize=14" parent="1" vertex="1">
          <mxGeometry x="1371.9999999999998" y="400" width="190" height="80" as="geometry" />
        </mxCell>
        <mxCell id="9" value="" style="edgeStyle=elbowEdgeStyle;elbow=vertical;strokeWidth=2;rounded=0" parent="1" source="2" target="4" edge="1">
          <mxGeometry x="337" y="215.5" width="100" height="100" as="geometry">
            <mxPoint x="337" y="315.5" as="sourcePoint" />
            <mxPoint x="437" y="215.5" as="targetPoint" />
            <Array as="points">
              <mxPoint x="1457" y="300" />
            </Array>
          </mxGeometry>
        </mxCell>
        <mxCell id="OYL8JyaW53EyTGdHdamk-142" style="edgeStyle=orthogonalEdgeStyle;rounded=0;orthogonalLoop=1;jettySize=auto;html=1;exitX=0.5;exitY=1;exitDx=0;exitDy=0;entryX=0;entryY=0.5;entryDx=0;entryDy=0;" parent="1" source="10" target="OYL8JyaW53EyTGdHdamk-141" edge="1">
          <mxGeometry relative="1" as="geometry">
            <Array as="points">
              <mxPoint x="1052" y="504.5" />
              <mxPoint x="967" y="504.5" />
              <mxPoint x="967" y="624.5" />
            </Array>
          </mxGeometry>
        </mxCell>
        <mxCell id="10" value="CONTACT" style="rounded=1;fillColor=#23445D;gradientColor=none;strokeColor=none;fontColor=#FFFFFF;fontStyle=1;fontFamily=Tahoma;fontSize=14" parent="1" vertex="1">
          <mxGeometry x="957" y="400" width="190" height="80" as="geometry" />
        </mxCell>
        <mxCell id="13" value="ABOUT" style="rounded=1;fillColor=#23445D;gradientColor=none;strokeColor=none;fontColor=#FFFFFF;fontStyle=1;fontFamily=Tahoma;fontSize=14" parent="1" vertex="1">
          <mxGeometry x="117" y="400" width="190" height="80" as="geometry" />
        </mxCell>
        <mxCell id="16" value="MEET OUR TEAM" style="rounded=1;fillColor=#23445D;gradientColor=none;strokeColor=none;fontColor=#FFFFFF;fontStyle=1;fontFamily=Tahoma;fontSize=14" parent="1" vertex="1">
          <mxGeometry x="247" y="520" width="130" height="60" as="geometry" />
        </mxCell>
        <mxCell id="17" value="OUR MISSION" style="rounded=1;fillColor=#23445D;gradientColor=none;strokeColor=none;fontColor=#FFFFFF;fontStyle=1;fontFamily=Tahoma;fontSize=14" parent="1" vertex="1">
          <mxGeometry x="247" y="610" width="130" height="60" as="geometry" />
        </mxCell>
        <mxCell id="41" value="CONTACT&#xa;FORM" style="rounded=1;fillColor=#23445D;gradientColor=none;strokeColor=none;fontColor=#FFFFFF;fontStyle=1;fontFamily=Tahoma;fontSize=14" parent="1" vertex="1">
          <mxGeometry x="987" y="520" width="130" height="60" as="geometry" />
        </mxCell>
        <mxCell id="59" value="" style="edgeStyle=elbowEdgeStyle;elbow=vertical;strokeWidth=2;rounded=0;entryX=0.5;entryY=0;entryDx=0;entryDy=0;" parent="1" source="2" target="OYL8JyaW53EyTGdHdamk-125" edge="1">
          <mxGeometry x="347" y="225.5" width="100" height="100" as="geometry">
            <mxPoint x="861.9999999999999" y="275.5" as="sourcePoint" />
            <mxPoint x="656.9999999999995" y="335.5" as="targetPoint" />
            <Array as="points">
              <mxPoint x="710" y="300" />
            </Array>
          </mxGeometry>
        </mxCell>
        <mxCell id="61" value="" style="edgeStyle=elbowEdgeStyle;elbow=vertical;strokeWidth=2;rounded=0" parent="1" source="2" target="13" edge="1">
          <mxGeometry x="-23" y="135.5" width="100" height="100" as="geometry">
            <mxPoint x="-23" y="235.5" as="sourcePoint" />
            <mxPoint x="77" y="135.5" as="targetPoint" />
            <Array as="points">
              <mxPoint x="202" y="300" />
              <mxPoint x="852" y="300" />
            </Array>
          </mxGeometry>
        </mxCell>
        <mxCell id="64" value="" style="edgeStyle=elbowEdgeStyle;elbow=horizontal;strokeWidth=2;rounded=0" parent="1" source="13" target="16" edge="1">
          <mxGeometry x="-23" y="135.5" width="100" height="100" as="geometry">
            <mxPoint x="-13" y="300" as="sourcePoint" />
            <mxPoint x="87" y="200" as="targetPoint" />
            <Array as="points">
              <mxPoint x="212" y="500" />
            </Array>
          </mxGeometry>
        </mxCell>
        <mxCell id="65" value="" style="edgeStyle=elbowEdgeStyle;elbow=horizontal;strokeWidth=2;rounded=0" parent="1" source="13" target="17" edge="1">
          <mxGeometry x="-23" y="135.5" width="100" height="100" as="geometry">
            <mxPoint x="-13" y="300" as="sourcePoint" />
            <mxPoint x="87" y="200" as="targetPoint" />
            <Array as="points">
              <mxPoint x="212" y="540" />
            </Array>
          </mxGeometry>
        </mxCell>
        <mxCell id="103" value="" style="edgeStyle=elbowEdgeStyle;elbow=vertical;strokeWidth=2;rounded=0" parent="1" source="10" target="41" edge="1">
          <mxGeometry x="-23" y="135.5" width="100" height="100" as="geometry">
            <mxPoint x="-13" y="300" as="sourcePoint" />
            <mxPoint x="87" y="200" as="targetPoint" />
          </mxGeometry>
        </mxCell>
        <mxCell id="OYL8JyaW53EyTGdHdamk-123" value="" style="fillColor=#F2931E;strokeColor=none;opacity=30;" parent="1" vertex="1">
          <mxGeometry x="640" y="510" width="150" height="354.5" as="geometry" />
        </mxCell>
        <mxCell id="OYL8JyaW53EyTGdHdamk-125" value="EXPLORE" style="rounded=1;fillColor=#23445D;gradientColor=none;strokeColor=none;fontColor=#FFFFFF;fontStyle=1;fontFamily=Tahoma;fontSize=14" parent="1" vertex="1">
          <mxGeometry x="520" y="400" width="190" height="80" as="geometry" />
        </mxCell>
        <mxCell id="OYL8JyaW53EyTGdHdamk-126" value="CATEGORIES" style="rounded=1;fillColor=#23445D;gradientColor=none;strokeColor=none;fontColor=#FFFFFF;fontStyle=1;fontFamily=Tahoma;fontSize=14" parent="1" vertex="1">
          <mxGeometry x="650" y="520" width="130" height="60" as="geometry" />
        </mxCell>
        <mxCell id="OYL8JyaW53EyTGdHdamk-127" value="POPULAR &#xa;COURSES" style="rounded=1;fillColor=#23445D;gradientColor=none;strokeColor=none;fontColor=#FFFFFF;fontStyle=1;fontFamily=Tahoma;fontSize=14" parent="1" vertex="1">
          <mxGeometry x="650" y="610" width="130" height="60" as="geometry" />
        </mxCell>
        <mxCell id="OYL8JyaW53EyTGdHdamk-128" value="FAQ" style="rounded=1;fillColor=#23445D;gradientColor=none;strokeColor=none;fontColor=#FFFFFF;fontStyle=1;fontFamily=Tahoma;fontSize=14" parent="1" vertex="1">
          <mxGeometry x="650" y="700" width="130" height="60" as="geometry" />
        </mxCell>
        <mxCell id="OYL8JyaW53EyTGdHdamk-129" value="TESTIMONIALS" style="rounded=1;fillColor=#23445D;gradientColor=none;strokeColor=none;fontColor=#FFFFFF;fontStyle=1;fontFamily=Tahoma;fontSize=14" parent="1" vertex="1">
          <mxGeometry x="650" y="790" width="130" height="40" as="geometry" />
        </mxCell>
        <mxCell id="OYL8JyaW53EyTGdHdamk-132" value="" style="edgeStyle=elbowEdgeStyle;elbow=horizontal;strokeWidth=2;rounded=0" parent="1" source="OYL8JyaW53EyTGdHdamk-125" target="OYL8JyaW53EyTGdHdamk-126" edge="1">
          <mxGeometry x="-23" y="135.5" width="100" height="100" as="geometry">
            <mxPoint x="390" y="300" as="sourcePoint" />
            <mxPoint x="490" y="200" as="targetPoint" />
            <Array as="points">
              <mxPoint x="615" y="500" />
            </Array>
          </mxGeometry>
        </mxCell>
        <mxCell id="OYL8JyaW53EyTGdHdamk-133" value="" style="edgeStyle=elbowEdgeStyle;elbow=horizontal;strokeWidth=2;rounded=0" parent="1" source="OYL8JyaW53EyTGdHdamk-125" target="OYL8JyaW53EyTGdHdamk-127" edge="1">
          <mxGeometry x="-23" y="135.5" width="100" height="100" as="geometry">
            <mxPoint x="390" y="300" as="sourcePoint" />
            <mxPoint x="490" y="200" as="targetPoint" />
            <Array as="points">
              <mxPoint x="615" y="540" />
            </Array>
          </mxGeometry>
        </mxCell>
        <mxCell id="OYL8JyaW53EyTGdHdamk-134" value="" style="edgeStyle=elbowEdgeStyle;elbow=horizontal;strokeWidth=2;rounded=0" parent="1" source="OYL8JyaW53EyTGdHdamk-125" target="OYL8JyaW53EyTGdHdamk-128" edge="1">
          <mxGeometry x="-23" y="135.5" width="100" height="100" as="geometry">
            <mxPoint x="390" y="300" as="sourcePoint" />
            <mxPoint x="490" y="200" as="targetPoint" />
            <Array as="points">
              <mxPoint x="615" y="590" />
            </Array>
          </mxGeometry>
        </mxCell>
        <mxCell id="OYL8JyaW53EyTGdHdamk-135" value="" style="edgeStyle=elbowEdgeStyle;elbow=horizontal;strokeWidth=2;rounded=0" parent="1" source="OYL8JyaW53EyTGdHdamk-125" target="OYL8JyaW53EyTGdHdamk-129" edge="1">
          <mxGeometry x="-23" y="135.5" width="100" height="100" as="geometry">
            <mxPoint x="390" y="300" as="sourcePoint" />
            <mxPoint x="490" y="200" as="targetPoint" />
            <Array as="points">
              <mxPoint x="615" y="640" />
            </Array>
          </mxGeometry>
        </mxCell>
        <mxCell id="OYL8JyaW53EyTGdHdamk-138" style="edgeStyle=orthogonalEdgeStyle;rounded=0;orthogonalLoop=1;jettySize=auto;html=1;exitX=0.5;exitY=1;exitDx=0;exitDy=0;" parent="1" source="OYL8JyaW53EyTGdHdamk-123" target="OYL8JyaW53EyTGdHdamk-123" edge="1">
          <mxGeometry relative="1" as="geometry" />
        </mxCell>
        <mxCell id="Um83vmuw5BoVvy3527df-133" style="edgeStyle=orthogonalEdgeStyle;rounded=0;orthogonalLoop=1;jettySize=auto;html=1;exitX=0.5;exitY=1;exitDx=0;exitDy=0;entryX=0;entryY=0.5;entryDx=0;entryDy=0;" parent="1" source="OYL8JyaW53EyTGdHdamk-139" target="Um83vmuw5BoVvy3527df-128" edge="1">
          <mxGeometry relative="1" as="geometry" />
        </mxCell>
        <mxCell id="OYL8JyaW53EyTGdHdamk-139" value="FIGMA CLONE" style="rounded=1;fillColor=#23445D;gradientColor=none;strokeColor=none;fontColor=#FFFFFF;fontStyle=1;fontFamily=Tahoma;fontSize=14" parent="1" vertex="1">
          <mxGeometry x="1699.9999999999998" y="400" width="190" height="80" as="geometry" />
        </mxCell>
        <mxCell id="OYL8JyaW53EyTGdHdamk-141" value="CONTACT&#xa;DETAILS" style="rounded=1;fillColor=#23445D;gradientColor=none;strokeColor=none;fontColor=#FFFFFF;fontStyle=1;fontFamily=Tahoma;fontSize=14" parent="1" vertex="1">
          <mxGeometry x="987" y="594.5" width="130" height="60" as="geometry" />
        </mxCell>
        <mxCell id="OYL8JyaW53EyTGdHdamk-150" style="edgeStyle=orthogonalEdgeStyle;rounded=0;orthogonalLoop=1;jettySize=auto;html=1;exitX=0.5;exitY=1;exitDx=0;exitDy=0;entryX=0;entryY=0.5;entryDx=0;entryDy=0;" parent="1" source="OYL8JyaW53EyTGdHdamk-143" target="OYL8JyaW53EyTGdHdamk-146" edge="1">
          <mxGeometry relative="1" as="geometry" />
        </mxCell>
        <mxCell id="OYL8JyaW53EyTGdHdamk-151" style="edgeStyle=orthogonalEdgeStyle;rounded=0;orthogonalLoop=1;jettySize=auto;html=1;exitX=0.5;exitY=1;exitDx=0;exitDy=0;entryX=0;entryY=0.5;entryDx=0;entryDy=0;" parent="1" source="OYL8JyaW53EyTGdHdamk-143" target="OYL8JyaW53EyTGdHdamk-147" edge="1">
          <mxGeometry relative="1" as="geometry" />
        </mxCell>
        <mxCell id="OYL8JyaW53EyTGdHdamk-152" style="edgeStyle=orthogonalEdgeStyle;rounded=0;orthogonalLoop=1;jettySize=auto;html=1;exitX=0.5;exitY=1;exitDx=0;exitDy=0;entryX=0;entryY=0.5;entryDx=0;entryDy=0;" parent="1" source="OYL8JyaW53EyTGdHdamk-143" target="OYL8JyaW53EyTGdHdamk-148" edge="1">
          <mxGeometry relative="1" as="geometry" />
        </mxCell>
        <mxCell id="OYL8JyaW53EyTGdHdamk-143" value="YOUR&#xa;LEARNINGS" style="rounded=1;fillColor=#23445D;gradientColor=none;strokeColor=none;fontColor=#FFFFFF;fontStyle=1;fontFamily=Tahoma;fontSize=14" parent="1" vertex="1">
          <mxGeometry x="-200" y="400" width="190" height="80" as="geometry" />
        </mxCell>
        <mxCell id="OYL8JyaW53EyTGdHdamk-145" value="" style="fillColor=#F2931E;strokeColor=none;opacity=30;" parent="1" vertex="1">
          <mxGeometry x="-70" y="507.75" width="180" height="264.5" as="geometry" />
        </mxCell>
        <mxCell id="ZuH5fpt-UMEo5CAFBYcC-136" style="edgeStyle=none;curved=1;rounded=0;orthogonalLoop=1;jettySize=auto;html=1;exitX=1;exitY=0.5;exitDx=0;exitDy=0;entryX=0.5;entryY=0;entryDx=0;entryDy=0;fontSize=12;startSize=8;endSize=8;" parent="1" source="OYL8JyaW53EyTGdHdamk-146" target="ZuH5fpt-UMEo5CAFBYcC-129" edge="1">
          <mxGeometry relative="1" as="geometry">
            <Array as="points">
              <mxPoint x="190" y="604.5" />
            </Array>
          </mxGeometry>
        </mxCell>
        <mxCell id="OYL8JyaW53EyTGdHdamk-146" value="Your COURSES" style="rounded=1;fillColor=#23445D;gradientColor=none;strokeColor=none;fontColor=#FFFFFF;fontStyle=1;fontFamily=Tahoma;fontSize=14" parent="1" vertex="1">
          <mxGeometry x="-60" y="517.75" width="160" height="60" as="geometry" />
        </mxCell>
        <mxCell id="OYL8JyaW53EyTGdHdamk-147" value="RECOMMENDATION" style="rounded=1;fillColor=#23445D;gradientColor=none;strokeColor=none;fontColor=#FFFFFF;fontStyle=1;fontFamily=Tahoma;fontSize=14" parent="1" vertex="1">
          <mxGeometry x="-60" y="607.75" width="160" height="60" as="geometry" />
        </mxCell>
        <mxCell id="OYL8JyaW53EyTGdHdamk-148" value="TIMELINE" style="rounded=1;fillColor=#23445D;gradientColor=none;strokeColor=none;fontColor=#FFFFFF;fontStyle=1;fontFamily=Tahoma;fontSize=14" parent="1" vertex="1">
          <mxGeometry x="-60" y="700" width="160" height="60" as="geometry" />
        </mxCell>
        <mxCell id="ZuH5fpt-UMEo5CAFBYcC-129" value="" style="fillColor=#10739E;strokeColor=none;opacity=30;" parent="1" vertex="1">
          <mxGeometry x="-100" y="880" width="580" height="90" as="geometry" />
        </mxCell>
        <mxCell id="ZuH5fpt-UMEo5CAFBYcC-132" value="ABOUT" style="rounded=1;fillColor=#23445D;gradientColor=none;strokeColor=none;fontColor=#FFFFFF;fontStyle=1;fontFamily=Tahoma;fontSize=14" parent="1" vertex="1">
          <mxGeometry x="120" y="895" width="133" height="60" as="geometry" />
        </mxCell>
        <mxCell id="ZuH5fpt-UMEo5CAFBYcC-133" value="EXPLORE" style="rounded=1;fillColor=#23445D;gradientColor=none;strokeColor=none;fontColor=#FFFFFF;fontStyle=1;fontFamily=Tahoma;fontSize=14" parent="1" vertex="1">
          <mxGeometry x="310" y="895" width="140" height="60" as="geometry" />
        </mxCell>
        <mxCell id="ZuH5fpt-UMEo5CAFBYcC-135" value="YOUR&#xa;LEARNINGS" style="rounded=1;fillColor=#23445D;gradientColor=none;strokeColor=none;fontColor=#FFFFFF;fontStyle=1;fontFamily=Tahoma;fontSize=14" parent="1" vertex="1">
          <mxGeometry x="-80" y="890" width="140" height="70" as="geometry" />
        </mxCell>
        <mxCell id="EgWpM7FZ9DTtyiWYHVQE-123" value="" style="fillColor=#F2931E;strokeColor=none;opacity=30;" parent="1" vertex="1">
          <mxGeometry x="1400" y="509" width="150" height="175.5" as="geometry" />
        </mxCell>
        <mxCell id="EgWpM7FZ9DTtyiWYHVQE-124" value="WebRTC" style="rounded=1;fillColor=#23445D;gradientColor=none;strokeColor=none;fontColor=#FFFFFF;fontStyle=1;fontFamily=Tahoma;fontSize=14" parent="1" vertex="1">
          <mxGeometry x="1410" y="519" width="130" height="60" as="geometry" />
        </mxCell>
        <mxCell id="EgWpM7FZ9DTtyiWYHVQE-125" value="REACT JS" style="rounded=1;fillColor=#23445D;gradientColor=none;strokeColor=none;fontColor=#FFFFFF;fontStyle=1;fontFamily=Tahoma;fontSize=14" parent="1" vertex="1">
          <mxGeometry x="1410" y="609" width="130" height="60" as="geometry" />
        </mxCell>
        <mxCell id="Um83vmuw5BoVvy3527df-127" value="" style="fillColor=#F2931E;strokeColor=none;opacity=30;" parent="1" vertex="1">
          <mxGeometry x="1770" y="506.5" width="150" height="178" as="geometry" />
        </mxCell>
        <mxCell id="Um83vmuw5BoVvy3527df-128" value="JAVASCRIPT" style="rounded=1;fillColor=#23445D;gradientColor=none;strokeColor=none;fontColor=#FFFFFF;fontStyle=1;fontFamily=Tahoma;fontSize=14" parent="1" vertex="1">
          <mxGeometry x="1780" y="516.5" width="130" height="60" as="geometry" />
        </mxCell>
        <mxCell id="Um83vmuw5BoVvy3527df-129" value="REACT" style="rounded=1;fillColor=#23445D;gradientColor=none;strokeColor=none;fontColor=#FFFFFF;fontStyle=1;fontFamily=Tahoma;fontSize=14" parent="1" vertex="1">
          <mxGeometry x="1780" y="606.5" width="130" height="60" as="geometry" />
        </mxCell>
      </root>
    </mxGraphModel>
  </diagram>
</mxfile>
